<svg width="72" height="72" viewBox="0 0 72 72" fill="none" xmlns="http://www.w3.org/2000/svg">
<g id="bi:discord" clip-path="url(#clip0_34717_2781)">
<g id="Group">
<path id="Vector" d="M60.4908 12.984C55.8574 10.8576 50.9683 9.33997 45.9453 8.46892C45.8998 8.46126 45.853 8.46788 45.8115 8.48787C45.7699 8.50786 45.7355 8.54025 45.7131 8.58057C45.0834 9.69705 44.3867 11.1574 43.8999 12.3007C38.4855 11.479 32.978 11.479 27.5636 12.3007C27.0206 11.0271 26.4063 9.78508 25.7237 8.58057C25.7007 8.54069 25.6663 8.50868 25.6248 8.48875C25.5834 8.46882 25.5369 8.46191 25.4914 8.46892C20.4673 9.33531 15.5771 10.8537 10.946 12.984C10.9063 12.9991 10.8732 13.0275 10.8522 13.0643C1.58989 26.9042 -0.951217 40.4046 0.294772 53.7354C0.299238 53.7979 0.339431 53.8604 0.388556 53.9006C5.78214 57.8959 11.815 60.9463 18.2299 62.9218C18.2752 62.936 18.3238 62.9355 18.3688 62.9203C18.4138 62.905 18.4527 62.8758 18.48 62.8369C19.8555 60.9612 21.0791 58.9828 22.1331 56.9017C22.155 56.8588 22.1626 56.81 22.1545 56.7625C22.1465 56.7151 22.1233 56.6715 22.0884 56.6382C22.0653 56.6164 22.0379 56.5997 22.008 56.5891C20.0839 55.8496 18.2205 54.9612 16.4346 53.9319C16.3847 53.9036 16.3476 53.8572 16.331 53.8024C16.3143 53.7475 16.3194 53.6883 16.3452 53.6371C16.3604 53.6039 16.3834 53.5748 16.4122 53.5523C16.7874 53.2709 17.1625 52.9762 17.5198 52.6814C17.5513 52.656 17.5892 52.6397 17.6293 52.6342C17.6695 52.6287 17.7103 52.6342 17.7475 52.6502C29.4438 57.9914 42.1046 57.9914 53.6579 52.6502C53.6965 52.6335 53.7389 52.6275 53.7806 52.633C53.8223 52.6386 53.8617 52.6553 53.8946 52.6814C54.2519 52.9762 54.627 53.2709 55.0022 53.5523C55.0326 53.5745 55.057 53.6039 55.0732 53.6379C55.0895 53.6718 55.0971 53.7093 55.0953 53.7469C55.0935 53.7845 55.0825 53.8211 55.0631 53.8534C55.0437 53.8856 55.0166 53.9126 54.9843 53.9319C53.2025 54.9706 51.3366 55.858 49.4064 56.5846C49.3756 56.5958 49.3476 56.6136 49.3245 56.6367C49.3013 56.6599 49.2835 56.6878 49.2724 56.7186C49.2621 56.7484 49.2579 56.7801 49.2602 56.8115C49.2625 56.843 49.2712 56.8737 49.2858 56.9017C50.3576 58.9784 51.5857 60.9612 52.9344 62.8369C52.9617 62.8758 53.0006 62.905 53.0456 62.9203C53.0906 62.9355 53.1392 62.936 53.1845 62.9218C59.6101 60.9524 65.6528 57.9016 71.0526 53.9006C71.0797 53.8819 71.1022 53.8573 71.1184 53.8287C71.1346 53.8001 71.1442 53.7682 71.1464 53.7354C72.638 38.3235 68.65 24.9347 60.5801 13.0688C60.5719 13.0492 60.5598 13.0315 60.5444 13.0169C60.529 13.0023 60.5107 12.9911 60.4908 12.984ZM23.8792 45.6164C20.3556 45.6164 17.4573 42.383 17.4573 38.4173C17.4573 34.4471 20.302 31.2138 23.8792 31.2138C27.4832 31.2138 30.3548 34.4739 30.3012 38.4173C30.3012 42.383 27.4564 45.6164 23.8792 45.6164ZM47.62 45.6164C44.1009 45.6164 41.198 42.383 41.198 38.4173C41.198 34.4471 44.0428 31.2138 47.62 31.2138C51.224 31.2138 54.1 34.4739 54.042 38.4173C54.042 42.383 51.224 45.6164 47.62 45.6164Z" fill="#FF0000"/>
</g>
</g>
<defs>
<clipPath id="clip0_34717_2781">
<rect width="71.4545" height="71.4545" fill="white" transform="translate(0 0.000976562)"/>
</clipPath>
</defs>
</svg>
