<svg width="72" height="72" viewBox="0 0 72 72" fill="none" xmlns="http://www.w3.org/2000/svg">
<g id="akar-icons:twitter-fill">
<g id="Group">
<path id="Vector" d="M70.8463 14.6985C68.3603 15.8001 65.6897 16.5444 62.8821 16.8808C65.779 15.1474 67.9463 12.4193 68.9796 9.20541C66.2579 10.822 63.2791 11.96 60.1728 12.5697C58.0839 10.3394 55.3171 8.86102 52.3019 8.36426C49.2867 7.86749 46.1918 8.38009 43.4978 9.82246C40.8038 11.2648 38.6614 13.5563 37.4031 16.3411C36.1448 19.1258 35.8412 22.2481 36.5392 25.2231C31.0244 24.9462 25.6294 23.5128 20.7044 21.016C15.7794 18.5191 11.4344 15.0146 7.95145 10.7298C6.76054 12.7841 6.07577 15.1659 6.07577 17.7025C6.07444 19.9861 6.63679 22.2347 7.71291 24.2488C8.78903 26.2629 10.3457 27.9802 12.2447 29.2484C10.0423 29.1783 7.88855 28.5832 5.96264 27.5127V27.6913C5.96241 30.8941 7.07028 33.9983 9.09825 36.4772C11.1262 38.9562 13.9494 40.6571 17.0887 41.2915C15.0456 41.8444 12.9037 41.9258 10.8245 41.5297C11.7103 44.2855 13.4356 46.6953 15.759 48.4218C18.0823 50.1483 20.8875 51.1051 23.7816 51.1582C18.8686 55.015 12.8011 57.107 6.55511 57.0978C5.4487 57.0981 4.34323 57.0335 3.24438 56.9043C9.58442 60.9807 16.9647 63.1441 24.5021 63.1357C50.0173 63.1357 63.9659 42.003 63.9659 23.675C63.9659 23.0795 63.951 22.4781 63.9242 21.8826C66.6373 19.9205 68.9793 17.4909 70.8404 14.7074L70.8463 14.6985Z" fill="#FF0000"/>
</g>
</g>
</svg>
